HIERARCHY
ROOT root
{
	OFFSET	0	13.1	24.9
	CHANNELS 6  Xposition Yposition Zposition Xrotation Yrotation Zrotation
	JOINT spine_1
	{
		OFFSET	0	9.99999	0
		CHANNELS 3  Xrotation Yrotation Zrotation
		JOINT spine_2
		{
			OFFSET	0	112	-10
			CHANNELS 3  Xrotation Yrotation Zrotation
			JOINT spine_3
			{
				OFFSET	0	206.5	19.3
				CHANNELS 3  Xrotation Yrotation Zrotation
				JOINT spine_4
				{
					OFFSET	0	110.4	14.6
					CHANNELS 3  Xrotation Yrotation Zrotation
					JOINT neck_1
					{
						OFFSET	0	71.8	-50.3
						CHANNELS 3  Xrotation Yrotation Zrotation
						JOINT neck_2
						{
							OFFSET	0	86.2	-25.8
							CHANNELS 3  Xrotation Yrotation Zrotation
							JOINT head_ee
							{
								OFFSET	0	179.8	-8.7
								CHANNELS 3  Xrotation Yrotation Zrotation
								End Site
								{
									OFFSET	1	0	0
								}
							}
						}
					}
					JOINT left_clavicle
					{
						OFFSET	-43.2	22.4	-70.8
						CHANNELS 3  Xrotation Yrotation Zrotation
						JOINT left_shoulder
						{
							OFFSET	-93.9	-5.79999	48.7
							CHANNELS 3  Xrotation Yrotation Zrotation
							JOINT left_elbow
							{
								OFFSET	-291.4	-30.8	15.2
								CHANNELS 3  Xrotation Yrotation Zrotation
								JOINT left_lowarm_twist
								{
									OFFSET	-110.7	-3.89999	13.6
									CHANNELS 3  Xrotation Yrotation Zrotation
									JOINT left_hand
									{
										OFFSET	-110.7	-3.89999	13.6
										CHANNELS 3  Xrotation Yrotation Zrotation
										JOINT left_ee
										{
											OFFSET	-80.8	-5.10001	12.1
											CHANNELS 3  Xrotation Yrotation Zrotation
											End Site
											{
												OFFSET	1	0	0
											}
										}
									}
								}
							}
						}
					}
					JOINT right_clavicle
					{
						OFFSET	43.2	22.4	-70.8
						CHANNELS 3  Xrotation Yrotation Zrotation
						JOINT right_shoulder
						{
							OFFSET	93.9	-5.79999	48.7
							CHANNELS 3  Xrotation Yrotation Zrotation
							JOINT right_elbow
							{
								OFFSET	291.4	-30.8	15.2
								CHANNELS 3  Xrotation Yrotation Zrotation
								JOINT right_lowarm_twist
								{
									OFFSET	110.7	-3.89999	13.6
									CHANNELS 3  Xrotation Yrotation Zrotation
									JOINT right_hand
									{
										OFFSET	110.7	-3.89999	13.6
										CHANNELS 3  Xrotation Yrotation Zrotation
										JOINT right_ee
										{
											OFFSET	80.8	-5.10001	12.1
											CHANNELS 3  Xrotation Yrotation Zrotation
											End Site
											{
												OFFSET	1	0	0
											}
										}
									}
								}
							}
						}
					}
				}
			}
		}
	}
	JOINT left_hip
	{
		OFFSET	-82.8	-127.5	0.300001
		CHANNELS 3  Xrotation Yrotation Zrotation
		JOINT left_knee
		{
			OFFSET	-28.2	-396.7	2.2
			CHANNELS 3  Xrotation Yrotation Zrotation
			JOINT left_ankle
			{
				OFFSET	-11.7	-411.3	35.4
				CHANNELS 3  Xrotation Yrotation Zrotation
				JOINT left_toes
				{
					OFFSET	0	-60	-88.6
					CHANNELS 3  Xrotation Yrotation Zrotation
					JOINT left_foot_ee
					{
						OFFSET	-22.5	-16.5	-42.2
						CHANNELS 3  Xrotation Yrotation Zrotation
						End Site
						{
							OFFSET	1	0	0
						}
					}
				}
			}
		}
	}
	JOINT right_hip
	{
		OFFSET	82.8	-127.5	0.300001
		CHANNELS 3  Xrotation Yrotation Zrotation
		JOINT right_knee
		{
			OFFSET	28.2	-396.7	2.2
			CHANNELS 3  Xrotation Yrotation Zrotation
			JOINT right_ankle
			{
				OFFSET	11.7	-411.3	35.4
				CHANNELS 3  Xrotation Yrotation Zrotation
				JOINT right_toes
				{
					OFFSET	0	-60	-88.6
					CHANNELS 3  Xrotation Yrotation Zrotation
					JOINT right_foot_ee
					{
						OFFSET	22.5	-16.5	-42.2
						CHANNELS 3  Xrotation Yrotation Zrotation
						End Site
						{
							OFFSET	1	0	0
						}
					}
				}
			}
		}
	}
}
MOTION
Frames: 16
Frame Time: 0.02
1372.05 701.618 -1475.22 -5.3030846534 33.6370660171 0.869598201538 2.81009 0.0671622 0.323034 2.81015 0.0464707 0.326652 2.8104 -0.00705651 0.329866 2.81025 0.0451279 0.326841 0.415157 0.43862 0.683734 0.416365 0.21611 0.783229 -0.0 0.0 -0.0 6.37437 -7.24818 12.1833 3.19836 -8.67807 59.6026 2.63561 -52.5414 1.3011 49.4498 -0.929703 -6.05473 0.250911 -1.1888 1.17866 -0.0 0.0 -0.0 9.62271 -3.98217 -18.6609 -17.8613 -33.2113 -57.0382 0.592312 16.3526 -0.0851039 70.8321 2.82716 8.01095 2.66719 -6.31139 -20.5255 0.0 0.0 0.0 -4.78155 -4.62353 8.15514 -15.0872 0.321796 2.28627 36.909 -17.9864 -4.98442 -29.1124 0.0 0.0 -0.0 0.0 -0.0 36.4807 -3.84239 -0.152094 -8.30324 -0.251777 -1.24831 4.47054 23.7017 0.761671 18.7074 -0.0 -0.0 0.0 0.0 0.0 
1357.71219818 699.39 -1496.63604293 -4.89304023045 35.4251305977 0.879485716999 2.71584 0.178217 0.319094 2.71588 0.157551 0.329788 2.71679 0.101477 0.351119 2.71665 0.155656 0.330686 1.25359 -0.357115 -0.116643 1.25381 -0.533348 -0.159834 -0.0 0.0 -0.0 6.35093 -7.31458 12.1322 1.85588 -8.63902 60.9045 2.55262 -51.6535 1.23561 48.4665 -0.861229 -5.9491 0.247441 -0.864002 1.29145 -0.0 0.0 -0.0 10.0273 -2.11072 -19.5936 -15.4085 -34.7903 -57.2443 0.602303 16.6133 -0.0879387 71.6617 2.91459 8.07169 2.33616 -5.53703 -17.9371 0.0 0.0 0.0 -4.08914 -5.70998 7.04791 -20.2838 0.292157 3.08276 36.4529 -18.4341 -4.95678 -27.7713 0.0 0.0 -0.0 0.0 -0.0 37.3236 -4.81083 0.129689 -14.2569 -0.319834 -2.15889 10.4908 22.6277 1.72693 19.1744 -0.0 -0.0 0.0 0.0 0.0 
1344.81617319 699.533 -1516.72662624 -4.70572479796 37.5208114463 0.781248409454 2.49588 0.129178 0.47018 2.49599 0.0989982 0.477447 2.49681 0.0176851 0.487281 2.49649 0.0944193 0.478373 2.55357 -0.770629 -0.154491 2.55487 -1.21642 -0.229963 -0.0 0.0 -0.0 5.95745 -7.22142 11.3207 1.05518 -8.65483 61.877 2.55676 -51.6986 1.23886 48.3299 -0.851862 -5.93433 0.298382 -1.07415 1.54462 -0.0 0.0 -0.0 10.2643 -1.67101 -20.1044 -14.809 -35.3264 -57.702 0.597675 16.4926 -0.0866202 72.3938 2.99247 8.12424 2.19346 -4.53142 -16.5776 0.0 0.0 0.0 -4.50133 -6.47817 6.26065 -22.1499 0.263905 3.3677 36.2892 -18.2993 -4.93559 -27.1951 0.0 0.0 -0.0 0.0 -0.0 38.1822 -5.50379 1.37402 -18.9429 -0.306719 -2.87754 9.6419 23.1243 1.60104 18.3994 -0.0 -0.0 0.0 0.0 0.0 
1323.66145853 700.055 -1546.16622594 -5.16739666232 39.8279119916 1.13473978296 2.0127 0.193603 0.332239 2.01274 0.172069 0.343885 2.01379 0.108978 0.368766 2.01364 0.16585 0.346928 3.79849 -1.19957 -0.773729 3.80109 -1.4101 -0.946042 -0.0 0.0 -0.0 6.39134 -6.4417 12.2471 -1.41499 -8.56919 61.868 2.43051 -50.2805 1.14075 47.8135 -0.816764 -5.87831 0.32056 -2.1761 1.23178 -0.0 0.0 -0.0 10.1686 -0.612649 -19.9709 -12.4777 -38.2003 -57.9425 0.58609 16.1898 -0.0833606 72.9385 3.05085 8.16269 1.93189 -4.63061 -14.8216 0.0 0.0 0.0 -1.14191 -8.47278 6.00836 -27.4008 0.134812 4.1629 39.2694 -16.4653 -5.15003 -25.711 0.0 0.0 -0.0 0.0 -0.0 38.4053 -5.77759 2.21618 -23.5252 -0.237151 -3.57705 13.6121 22.2435 2.20141 19.7199 -0.0 -0.0 0.0 0.0 0.0 
1290.7042673 708.239 -1579.40936413 -3.90534329394 40.1895155628 -0.0745189654779 1.45628 0.233071 0.323388 1.45631 0.212021 0.337564 1.45758 0.145825 0.370995 1.45745 0.202586 0.343309 4.40608 -0.996837 0.493884 4.41301 -2.14633 0.504139 -0.0 0.0 -0.0 4.68943 -5.12882 8.82386 -5.51434 -10.4862 65.6408 2.43636 -50.3482 1.14525 48.2884 -0.849021 -5.92984 0.564562 -1.25885 3.25196 -0.0 0.0 -0.0 10.7292 3.70114 -21.3473 -9.47908 -34.3216 -56.9703 0.601183 16.5841 -0.0876187 73.4266 3.10347 8.19668 1.77572 -5.29909 -14.0122 0.0 0.0 0.0 2.04509 -5.32896 5.67891 -28.3823 0.102619 4.31009 38.4518 -19.0169 -5.17095 -24.829 0.0 0.0 -0.0 0.0 -0.0 35.3239 -6.07693 2.3643 -25.1487 -0.19911 -3.82328 12.334 20.8136 1.97855 19.3856 -0.0 -0.0 0.0 0.0 0.0 
1292.80175101 708.239 -1581.01351047 -3.84133539137 39.0475318896 -0.174891269226 1.45628 0.233071 0.323388 1.45631 0.212021 0.337564 1.45758 0.145825 0.370995 1.45745 0.202586 0.343309 4.40608 -0.996837 0.493884 4.41301 -2.14633 0.504139 -0.0 0.0 -0.0 4.68943 -5.12882 8.82386 -5.51434 -10.4862 65.6408 2.43636 -50.3482 1.14525 48.2884 -0.849021 -5.92984 0.564562 -1.25885 3.25196 -0.0 0.0 -0.0 10.7292 3.70114 -21.3473 -9.47908 -34.3216 -56.9703 0.601183 16.5841 -0.0876187 73.4266 3.10347 8.19668 1.77572 -5.29909 -14.0122 0.0 0.0 0.0 2.04509 -5.32896 5.67891 -28.3823 0.102619 4.31009 38.4518 -19.0169 -5.17095 -24.829 0.0 0.0 -0.0 0.0 -0.0 35.3239 -6.07693 2.3643 -25.1487 -0.19911 -3.82328 12.334 20.8136 1.97855 19.3856 -0.0 -0.0 0.0 0.0 0.0 
1270.19560767 713.822 -1600.7215365 -4.22461409015 40.997701321 -0.299237826568 1.5712 0.306987 0.425584 1.57126 0.279284 0.444255 1.57347 0.193152 0.487908 1.57324 0.267783 0.451281 5.33772 -2.35132 -1.21748 5.34787 -2.9514 -1.50716 -0.0 0.0 -0.0 4.87455 -2.7188 9.31016 -9.42932 -15.5073 65.3769 2.10185 -46.1505 0.895526 47.1379 -0.771615 -5.80454 0.772511 -3.28296 3.80842 -0.0 0.0 -0.0 10.3669 4.16252 -20.5863 -6.65148 -36.951 -56.6569 0.647656 17.7879 -0.101351 73.9288 3.15791 8.23118 1.69573 -5.70509 -13.624 0.0 0.0 0.0 4.48248 -6.89447 6.84027 -31.3053 -0.00813774 4.74494 38.6795 -18.2365 -5.1614 -24.0256 0.0 0.0 -0.0 0.0 -0.0 33.3058 -6.18051 3.68286 -24.9464 -0.20423 -3.79266 14.4958 19.6881 2.27884 20.8675 -0.0 -0.0 0.0 0.0 0.0 
1274.35523151 713.822 -1603.98600914 -4.1100494471 39.1281918236 -0.47721205626 1.5712 0.306987 0.425584 1.57126 0.279284 0.444255 1.57347 0.193152 0.487908 1.57324 0.267783 0.451281 5.33772 -2.35132 -1.21748 5.34787 -2.9514 -1.50716 -0.0 0.0 -0.0 4.87455 -2.7188 9.31016 -9.42932 -15.5073 65.3769 2.10185 -46.1505 0.895526 47.1379 -0.771615 -5.80454 0.772511 -3.28296 3.80842 -0.0 0.0 -0.0 10.3669 4.16252 -20.5863 -6.65148 -36.951 -56.6569 0.647656 17.7879 -0.101351 73.9288 3.15791 8.23118 1.69573 -5.70509 -13.624 0.0 0.0 0.0 4.48248 -6.89447 6.84027 -31.3053 -0.00813774 4.74494 38.6795 -18.2365 -5.1614 -24.0256 0.0 0.0 -0.0 0.0 -0.0 33.3058 -6.18051 3.68286 -24.9464 -0.20423 -3.79266 14.4958 19.6881 2.27884 20.8675 -0.0 -0.0 0.0 0.0 0.0 
1256.93684334 718.364 -1620.29961981 -4.06538348436 39.3848968037 -0.66020843183 1.58865 0.279104 0.461718 1.58873 0.249159 0.478542 1.59085 0.15741 0.516046 1.59056 0.236933 0.484711 5.70869 -2.55999 -1.36747 5.72065 -3.15776 -1.68714 -0.0 0.0 -0.0 4.36506 -0.666067 8.39516 -12.9439 -19.0836 66.5195 1.89746 -43.2224 0.751743 47.0536 -0.766044 -5.79531 0.886443 -3.82999 4.34856 -0.0 0.0 -0.0 10.2422 6.31807 -20.3616 -4.05776 -36.3809 -56.0355 0.686009 18.7693 -0.113381 75.1818 3.29504 8.31518 1.53655 -6.77764 -12.9559 0.0 0.0 0.0 6.91898 -5.56615 8.00229 -35.5629 -0.208875 5.36719 38.0745 -19.5473 -5.15703 -23.0374 0.0 0.0 -0.0 0.0 -0.0 30.6189 -6.20231 4.01677 -22.808 -0.25173 -3.46796 15.676 17.8803 2.41286 21.9312 -0.0 -0.0 0.0 0.0 0.0 
1241.94047994 723.59 -1640.36776266 -3.51501126009 39.1809457142 -1.84021796766 1.63088 0.248938 0.700977 1.63113 0.20383 0.715396 1.63373 0.0700696 0.740558 1.63301 0.186145 0.7202 6.28544 -2.72476 -1.37152 6.29926 -3.40445 -1.69561 -0.0 0.0 -0.0 4.02881 0.976589 7.81923 -16.0431 -21.5268 66.8629 1.62963 -38.91 0.575677 46.8662 -0.753703 -5.77473 0.957811 -4.13543 4.70289 -0.0 0.0 -0.0 10.2844 7.02965 -20.4602 -2.63521 -35.8135 -56.1171 0.735542 20.02 -0.12983 75.9932 3.3848 8.36796 1.43874 -7.61052 -12.6135 0.0 0.0 0.0 9.01909 -4.21689 8.70678 -39.3351 -0.42501 5.90499 37.5532 -20.5485 -5.14936 -22.3823 0.0 0.0 -0.0 0.0 -0.0 28.3326 -6.05731 4.652 -22.6246 -0.25524 -3.44002 16.5474 16.6057 2.51063 22.5136 -0.0 -0.0 0.0 0.0 0.0 
1191.30438191 730.067 -1672.89585907 0.19352534145 38.4936407924 -6.73814524917 1.43464 0.52405 1.05031 1.43514 0.456158 1.08153 1.44395 0.247713 1.14735 1.44237 0.425796 1.09384 3.65902 -0.794368 0.446896 3.6636 -1.76153 0.451295 -0.0 0.0 -0.0 3.72126 5.08345 7.42518 -21.4587 -24.8668 67.1632 1.14441 -29.5482 0.301822 46.8321 -0.751465 -5.77098 0.95356 -4.60232 4.47883 -0.0 0.0 -0.0 10.4727 7.62597 -20.874 -2.82745 -32.368 -57.6684 0.815978 22.009 -0.158679 77.2427 3.52448 8.44676 1.4154 -7.0957 -12.265 0.0 0.0 0.0 16.5579 3.49908 5.6181 -57.8901 -1.97652 8.28891 37.842 -23.4682 -5.3134 -19.5382 0.0 0.0 -0.0 0.0 -0.0 21.5466 -7.54065 7.1988 -21.7523 -0.270703 -3.30707 17.2942 16.8823 2.61999 24.2409 -0.0 -0.0 0.0 0.0 0.0 
1200.30926815 730.067 -1680.76767024 0.187070488751 35.9349935432 -6.72747517046 1.43464 0.52405 1.05031 1.43514 0.456158 1.08153 1.44395 0.247713 1.14735 1.44237 0.425796 1.09384 3.65902 -0.794368 0.446896 3.6636 -1.76153 0.451295 -0.0 0.0 -0.0 3.72126 5.08345 7.42518 -21.4587 -24.8668 67.1632 1.14441 -29.5482 0.301822 46.8321 -0.751465 -5.77098 0.95356 -4.60232 4.47883 -0.0 0.0 -0.0 10.4727 7.62597 -20.874 -2.82745 -32.368 -57.6684 0.815978 22.009 -0.158679 77.2427 3.52448 8.44676 1.4154 -7.0957 -12.265 0.0 0.0 0.0 16.5579 3.49908 5.6181 -57.8901 -1.97652 8.28891 37.842 -23.4682 -5.3134 -19.5382 0.0 0.0 -0.0 0.0 -0.0 21.5466 -7.54065 7.1988 -21.7523 -0.270703 -3.30707 17.2942 16.8823 2.61999 24.2409 -0.0 -0.0 0.0 0.0 0.0 
1188.87544524 733.312 -1700.92053958 1.01159189636 34.6908106624 -7.89299953566 1.70494 0.497807 1.31968 1.70582 0.412831 1.34868 1.71571 0.162245 1.40108 1.71318 0.381463 1.35788 0.922372 -0.038526 1.01425 0.926535 -0.909656 1.09898 -0.0 0.0 -0.0 3.44747 6.69797 6.99708 -23.1529 -27.1477 67.305 0.827941 -22.3002 0.163191 46.844 -0.752247 -5.77229 0.664805 -4.14568 2.72162 -0.0 0.0 -0.0 10.397 7.79987 -20.7099 -2.35691 -30.1566 -59.4465 0.763942 20.7283 -0.139718 77.8236 3.58999 8.48236 1.46783 -6.22621 -12.2876 0.0 0.0 0.0 21.5455 4.29597 3.50115 -67.0553 -3.00802 9.25443 37.3875 -24.9481 -5.34557 -17.8145 0.0 0.0 -0.0 0.0 -0.0 18.2346 -8.6569 8.20346 -19.3667 -0.302636 -2.94244 17.9213 18.548 2.74335 24.4162 -0.0 -0.0 0.0 0.0 0.0 
1175.40815997 735.726 -1721.25071749 1.51827217844 34.3338897812 -8.23005202171 1.91074 0.601339 1.39243 1.91168 0.511526 1.42787 1.92458 0.250493 1.49589 1.92179 0.483572 1.43757 -1.48923 1.06843 3.1238 -1.46107 -0.575996 3.43723 -0.0 0.0 -0.0 3.04377 8.57996 6.36609 -24.8814 -28.4106 67.2868 0.627205 -17.2601 0.0951932 46.9211 -0.757313 -5.78076 0.393049 -2.99354 1.37569 -0.0 0.0 -0.0 10.3544 7.99028 -20.6178 -1.33362 -26.303 -61.0876 0.728374 19.8402 -0.127387 78.5212 3.66913 8.52422 1.42872 -5.57083 -11.7762 0.0 0.0 0.0 24.6778 5.97119 1.55332 -72.9845 -3.75252 9.78707 35.2077 -25.5789 -5.15504 -16.9639 0.0 0.0 -0.0 0.0 -0.0 15.8493 -9.75085 7.60542 -18.5299 -0.310237 -2.81428 19.1872 18.5207 2.9173 24.187 -0.0 -0.0 0.0 0.0 0.0 
1186.88434342 735.726 -1729.99991841 1.47371573306 31.7093533964 -8.14831185112 1.91074 0.601339 1.39243 1.91168 0.511526 1.42787 1.92458 0.250493 1.49589 1.92179 0.483572 1.43757 -1.48923 1.06843 3.1238 -1.46107 -0.575996 3.43723 -0.0 0.0 -0.0 3.04377 8.57996 6.36609 -24.8814 -28.4106 67.2868 0.627205 -17.2601 0.0951932 46.9211 -0.757313 -5.78076 0.393049 -2.99354 1.37569 -0.0 0.0 -0.0 10.3544 7.99028 -20.6178 -1.33362 -26.303 -61.0876 0.728374 19.8402 -0.127387 78.5212 3.66913 8.52422 1.42872 -5.57083 -11.7762 0.0 0.0 0.0 24.6778 5.97119 1.55332 -72.9845 -3.75252 9.78707 35.2077 -25.5789 -5.15504 -16.9639 0.0 0.0 -0.0 0.0 -0.0 15.8493 -9.75085 7.60542 -18.5299 -0.310237 -2.81428 19.1872 18.5207 2.9173 24.187 -0.0 -0.0 0.0 0.0 0.0 
1174.41790058 735.722 -1739.67022483 1.81949215501 32.516471974 -8.17365779725 2.09868 0.627471 1.509 2.09979 0.53019 1.54586 2.1142 0.253316 1.61449 2.11092 0.505084 1.55424 -3.73344 1.3637 3.62591 -3.69633 -0.303064 3.95444 -0.0 0.0 -0.0 2.6141 9.30584 5.65181 -25.1367 -29.8477 68.0981 0.428335 -11.9798 0.0449439 46.6223 -0.737749 -5.7479 0.454577 -3.28612 1.66665 -0.0 0.0 -0.0 10.7201 12.1759 -21.3864 3.4526 -25.259 -61.326 0.76345 20.7161 -0.139544 78.6537 3.68421 8.53206 1.59007 -4.34103 -12.391 0.0 0.0 0.0 29.0521 4.54991 1.27785 -76.8764 -4.26952 10.0939 32.5414 -26.1092 -4.88983 -16.4951 0.0 0.0 -0.0 0.0 -0.0 13.7754 -10.4135 6.69985 -17.0266 -0.319187 -2.5838 18.3152 18.1941 2.78975 23.8332 -0.0 -0.0 0.0 0.0 0.0 
